<svg width="210" height="219" viewBox="0 0 210 219" fill="none" xmlns="http://www.w3.org/2000/svg">
<path fill-rule="evenodd" clip-rule="evenodd" d="M117.865 99.0713L169.052 95.9498L170.387 117.844L119.2 120.965L117.865 99.0713Z" fill="white"/>
<path fill-rule="evenodd" clip-rule="evenodd" d="M75.9119 173.373C71.4038 173.648 67.3182 171.294 64.9753 167.577C64.018 169.598 63.5865 171.854 63.7245 174.116C64.1582 181.229 69.9662 186.663 76.6973 186.252L88.8847 185.509L88.0993 172.63L75.9119 173.373Z" fill="#3ECC5F"/>
<path fill-rule="evenodd" clip-rule="evenodd" d="M126.595 102.013L169.091 96.5936L168.699 90.1541C168.265 83.0411 162.457 77.608 155.726 78.0185L100.883 81.3629L99.1891 78.6675C98.4359 77.4693 96.7437 77.5725 96.1423 78.8533L94.7889 81.7345L93.0954 79.0392C92.3428 77.8408 90.65 77.9441 90.0486 79.225L88.6952 82.1061L87.0017 79.4108C86.2491 78.2124 84.5563 78.3157 83.9548 79.5966L82.6015 82.4777C82.588 82.4786 82.576 82.4812 82.562 82.4821L79.8753 79.9694C78.8569 79.0161 77.2508 79.5782 76.9841 80.9821L76.3503 84.3197L73.1318 83.6162C71.8003 83.3258 70.6812 84.6634 71.1165 86.0246L72.1675 89.3169L69.1121 90.3868C67.8258 90.8375 67.493 92.5919 68.5121 93.5452L71.1987 96.0585C71.1995 96.072 71.1985 96.0857 71.1994 96.0998L68.659 97.8706C67.5296 98.6575 67.6387 100.446 68.8553 101.09L71.5921 102.539L69.0517 104.31C67.9223 105.097 68.0314 106.886 69.248 107.53L71.9848 108.979L69.4444 110.749C68.315 111.536 68.424 113.325 69.6407 113.969L72.3775 115.418L69.8371 117.189C68.7076 117.976 68.8167 119.765 70.0334 120.409L72.7702 121.858L70.2297 123.628C69.1003 124.415 69.2094 126.204 70.4261 126.848L73.1628 128.297L70.6224 130.068C69.493 130.855 69.6021 132.644 70.8188 133.287L73.5555 134.736L71.0151 136.507C69.8857 137.294 69.9948 139.083 71.2115 139.727L73.9482 141.176L71.4078 142.947C70.2784 143.734 70.3875 145.522 71.6042 146.166L74.3409 147.615L71.8005 149.386C70.6711 150.173 70.7802 151.962 71.9968 152.606L74.7336 154.055L72.1932 155.826C71.0638 156.612 71.1729 158.401 72.3895 159.045L75.1263 160.494L72.5859 162.265C71.4565 163.052 71.5655 164.841 72.7822 165.485L75.519 166.934L72.9786 168.704C71.8491 169.491 71.9582 171.28 73.1749 171.924L75.9116 173.373C76.3454 180.486 82.1533 185.919 88.8844 185.509L162.009 181.049C168.74 180.639 173.845 174.54 173.411 167.427L170.27 115.912L127.43 115.696C125.776 115.687 124.183 115.014 122.976 113.811C121.769 112.609 121.037 110.969 120.931 109.226C120.71 105.606 123.19 102.448 126.595 102.013Z" fill="#3ECC5F"/>
<path fill-rule="evenodd" clip-rule="evenodd" d="M149.822 181.793L168.103 180.678L166.532 154.92L148.251 156.035L149.822 181.793Z" fill="#3ECC5F"/>
<path fill-rule="evenodd" clip-rule="evenodd" d="M179.308 163.836C179.175 163.844 179.049 163.876 178.922 163.901C178.892 163.806 178.865 163.71 178.833 163.615C179.465 163.289 179.969 162.74 180.259 162.063C180.55 161.387 180.608 160.623 180.426 159.902C180.243 159.181 179.83 158.548 179.257 158.109C178.684 157.671 177.986 157.454 177.283 157.496C176.617 157.54 175.986 157.813 175.485 158.276C175.414 158.207 175.341 158.139 175.268 158.072C175.632 157.494 175.808 156.806 175.767 156.111C175.721 155.369 175.435 154.665 174.955 154.117C174.476 153.57 173.834 153.213 173.137 153.107C172.44 153 171.731 153.151 171.131 153.534C170.53 153.916 170.074 154.507 169.841 155.206C169.749 155.184 169.657 155.167 169.565 155.148C169.573 155.012 169.587 154.876 169.579 154.735C169.527 153.881 169.156 153.081 168.548 152.512C167.939 151.943 167.144 151.651 166.336 151.701C165.528 151.75 164.773 152.136 164.239 152.775C163.704 153.414 163.433 154.252 163.485 155.106C163.494 155.247 163.524 155.38 163.549 155.515C163.461 155.545 163.371 155.573 163.283 155.606C162.966 154.939 162.442 154.407 161.799 154.099C161.156 153.791 160.434 153.727 159.754 153.918C159.075 154.108 158.48 154.541 158.071 155.144C157.662 155.747 157.464 156.481 157.51 157.224C157.554 157.948 157.829 158.595 158.243 159.11C156.121 161.587 154.91 164.932 155.13 168.542C155.564 175.655 161.372 181.089 168.103 180.678C173.794 180.331 178.308 175.913 179.309 170.258C179.439 170.268 179.568 170.284 179.701 170.276C180.509 170.226 181.263 169.84 181.798 169.201C182.333 168.563 182.604 167.724 182.552 166.87C182.5 166.016 182.129 165.217 181.52 164.648C180.912 164.079 180.116 163.787 179.308 163.836" fill="#44D860"/>
<path fill-rule="evenodd" clip-rule="evenodd" d="M153.559 142.785L171.84 141.67L171.055 128.791L152.774 129.906L153.559 142.785Z" fill="#3ECC5F"/>
<path fill-rule="evenodd" clip-rule="evenodd" d="M177.64 136.469C178.044 136.444 178.421 136.251 178.688 135.932C178.955 135.612 179.091 135.193 179.065 134.766C179.039 134.339 178.853 133.939 178.549 133.655C178.245 133.37 177.847 133.224 177.443 133.249C177.377 133.253 177.314 133.269 177.25 133.282C177.235 133.234 177.222 133.186 177.206 133.139C177.522 132.975 177.773 132.701 177.918 132.363C178.063 132.024 178.092 131.643 178.001 131.282C177.909 130.922 177.703 130.606 177.417 130.386C177.131 130.167 176.782 130.058 176.43 130.079C176.084 130.1 175.775 130.246 175.532 130.469C175.496 130.434 175.46 130.4 175.423 130.367C175.598 130.087 175.695 129.748 175.673 129.386C175.65 129.015 175.507 128.663 175.267 128.389C175.027 128.115 174.706 127.937 174.357 127.883C174.009 127.83 173.654 127.906 173.354 128.097C173.054 128.289 172.826 128.584 172.709 128.934C172.166 128.807 171.61 128.759 171.055 128.791C167.69 128.996 165.137 132.046 165.354 135.602C165.571 139.158 168.476 141.875 171.84 141.67C172.41 141.635 172.952 141.513 173.465 141.327C173.623 141.66 173.885 141.926 174.207 142.079C174.528 142.233 174.889 142.265 175.229 142.17C175.568 142.075 175.865 141.858 176.07 141.557C176.274 141.256 176.374 140.889 176.351 140.518C176.329 140.156 176.192 139.832 175.984 139.575C176.017 139.538 176.049 139.5 176.08 139.461C176.349 139.652 176.673 139.759 177.019 139.738C177.372 139.717 177.705 139.567 177.963 139.315C178.221 139.062 178.387 138.723 178.434 138.354C178.481 137.985 178.405 137.609 178.22 137.29C178.035 136.972 177.751 136.731 177.418 136.607C177.427 136.559 177.435 136.509 177.444 136.46C177.509 136.464 177.573 136.473 177.64 136.469Z" fill="#44D860"/>
<path fill-rule="evenodd" clip-rule="evenodd" d="M96.0653 102.663C95.6612 102.687 95.2634 102.541 94.9593 102.257C94.6552 101.972 94.4697 101.573 94.4437 101.146C94.2812 98.4823 92.0992 96.4411 89.5789 96.5948C87.0585 96.7485 85.1407 99.0397 85.3031 101.703C85.3291 102.13 85.1936 102.549 84.9263 102.869C84.659 103.188 84.2819 103.381 83.8778 103.406C83.4738 103.43 83.076 103.285 82.7719 103C82.4677 102.716 82.2823 102.316 82.2562 101.889C81.9856 97.4502 85.1821 93.6312 89.3825 93.3751C93.5829 93.1189 97.2198 96.5212 97.4905 100.96C97.5166 101.387 97.381 101.806 97.1137 102.125C96.8465 102.445 96.4693 102.638 96.0653 102.663" fill="black"/>
<path fill-rule="evenodd" clip-rule="evenodd" d="M125.447 183.279L162.009 181.05C168.74 180.639 173.845 174.54 173.411 167.427L170.662 122.351L134.1 124.581C127.369 124.991 122.264 131.09 122.698 138.203L125.447 183.279Z" fill="#FFFF50"/>
<path fill-rule="evenodd" clip-rule="evenodd" d="M162.751 142.87L132.258 144.73C132.097 144.74 131.938 144.681 131.816 144.568C131.694 144.454 131.62 144.294 131.61 144.123C131.599 143.952 131.653 143.785 131.76 143.657C131.867 143.529 132.018 143.452 132.18 143.442L162.673 141.583C162.834 141.573 162.993 141.631 163.115 141.745C163.237 141.859 163.311 142.019 163.321 142.189C163.332 142.36 163.278 142.528 163.171 142.656C163.064 142.783 162.913 142.861 162.751 142.87ZM163.537 155.749L133.044 157.609C132.882 157.619 132.723 157.56 132.601 157.447C132.48 157.333 132.405 157.173 132.395 157.002C132.385 156.831 132.439 156.664 132.546 156.536C132.653 156.408 132.803 156.331 132.965 156.321L163.458 154.461C163.62 154.452 163.779 154.51 163.9 154.624C164.022 154.738 164.096 154.897 164.107 155.068C164.117 155.239 164.063 155.407 163.956 155.534C163.849 155.662 163.698 155.739 163.537 155.749ZM164.322 168.628L133.829 170.488C133.667 170.498 133.508 170.439 133.387 170.325C133.265 170.212 133.191 170.052 133.18 169.881C133.17 169.71 133.224 169.542 133.331 169.415C133.438 169.287 133.589 169.21 133.75 169.2L164.243 167.34C164.405 167.33 164.564 167.389 164.686 167.503C164.807 167.616 164.882 167.776 164.892 167.947C164.902 168.118 164.848 168.286 164.741 168.413C164.634 168.541 164.484 168.618 164.322 168.628ZM162.366 136.551L131.873 138.41C131.711 138.42 131.552 138.362 131.43 138.248C131.309 138.134 131.235 137.974 131.224 137.804C131.214 137.633 131.268 137.465 131.375 137.337C131.482 137.21 131.633 137.132 131.794 137.122L162.287 135.263C162.449 135.253 162.608 135.311 162.73 135.425C162.851 135.539 162.926 135.699 162.936 135.87C162.946 136.04 162.892 136.208 162.785 136.336C162.678 136.464 162.527 136.541 162.366 136.551ZM163.144 149.31L132.651 151.169C132.489 151.179 132.33 151.121 132.209 151.007C132.087 150.893 132.013 150.733 132.002 150.563C131.992 150.392 132.046 150.224 132.153 150.096C132.26 149.969 132.411 149.891 132.572 149.882L163.065 148.022C163.227 148.012 163.386 148.071 163.508 148.184C163.629 148.298 163.704 148.458 163.714 148.629C163.724 148.8 163.67 148.967 163.563 149.095C163.456 149.223 163.306 149.3 163.144 149.31ZM163.929 162.189L133.436 164.048C133.275 164.058 133.116 164 132.994 163.886C132.872 163.772 132.798 163.612 132.788 163.442C132.777 163.271 132.831 163.103 132.938 162.975C133.045 162.848 133.196 162.77 133.358 162.76L163.851 160.901C164.012 160.891 164.171 160.949 164.293 161.063C164.415 161.177 164.489 161.337 164.499 161.508C164.51 161.678 164.456 161.846 164.349 161.974C164.242 162.102 164.091 162.179 163.929 162.189ZM169.43 102.139C169.422 102.139 169.416 102.136 169.409 102.137C167.53 102.319 166.76 104.364 166.081 106.168C165.373 108.053 164.811 109.285 163.77 109.313C162.616 109.339 161.874 108.005 161.088 106.593C160.186 104.972 159.156 103.133 157.241 103.321C155.389 103.501 154.601 105.288 153.906 106.864C153.166 108.543 152.655 109.568 151.551 109.589C150.374 109.616 149.682 108.536 148.881 107.287C147.988 105.897 146.959 104.334 145.081 104.505C143.26 104.682 142.454 106.206 141.742 107.552C140.989 108.975 140.454 109.846 139.335 109.865C138.13 109.893 137.453 109.004 136.669 107.974C135.789 106.817 134.796 105.507 132.924 105.688C131.144 105.861 130.321 107.12 129.595 108.229C128.906 109.282 128.368 110.115 127.125 110.141C126.963 110.144 126.81 110.216 126.698 110.34C126.587 110.463 126.527 110.629 126.532 110.8C126.536 110.971 126.605 111.134 126.723 111.252C126.841 111.371 126.998 111.435 127.16 111.431C129.002 111.384 129.859 110.103 130.601 108.968C131.259 107.961 131.828 107.091 133.044 106.973C134.214 106.849 134.812 107.586 135.72 108.778C136.582 109.911 137.561 111.196 139.37 111.155C141.265 111.106 142.084 109.558 142.809 108.187C143.457 106.962 144.016 105.905 145.201 105.789C146.291 105.68 146.941 106.556 147.871 108.006C148.748 109.372 149.741 110.92 151.586 110.879C153.495 110.832 154.307 109.02 155.013 107.416C155.626 106.029 156.203 104.719 157.361 104.606C158.452 104.512 159.086 105.531 160.037 107.241C160.924 108.837 161.93 110.645 163.804 110.602L163.907 110.598C165.775 110.484 166.54 108.45 167.217 106.651C167.817 105.057 168.385 103.555 169.508 103.427L169.43 102.139V102.139Z" fill="black"/>
<path fill-rule="evenodd" clip-rule="evenodd" d="M113.259 184.022L137.634 182.536L136.063 156.778L111.689 158.265L113.259 184.022Z" fill="#3ECC5F"/>
<path fill-rule="evenodd" clip-rule="evenodd" d="M148.84 165.694C148.707 165.702 148.581 165.734 148.453 165.759C148.424 165.664 148.396 165.568 148.365 165.473C148.997 165.147 149.501 164.598 149.791 163.921C150.081 163.244 150.14 162.481 149.957 161.76C149.775 161.039 149.362 160.405 148.789 159.967C148.216 159.528 147.518 159.312 146.814 159.354C146.149 159.397 145.517 159.671 145.017 160.134C144.945 160.065 144.873 159.997 144.8 159.93C145.164 159.352 145.339 158.664 145.298 157.969C145.253 157.227 144.966 156.523 144.487 155.975C144.008 155.428 143.365 155.071 142.669 154.964C141.972 154.858 141.263 155.009 140.662 155.391C140.062 155.774 139.606 156.365 139.372 157.064C139.28 157.042 139.188 157.025 139.097 157.006C139.105 156.869 139.119 156.733 139.11 156.592C139.058 155.739 138.687 154.939 138.079 154.37C137.471 153.801 136.675 153.509 135.867 153.559C135.059 153.608 134.305 153.994 133.77 154.633C133.236 155.272 132.965 156.11 133.017 156.964C133.025 157.105 133.056 157.238 133.081 157.373C132.992 157.403 132.903 157.431 132.814 157.464C132.498 156.797 131.974 156.264 131.331 155.957C130.688 155.649 129.965 155.585 129.286 155.775C128.606 155.966 128.012 156.399 127.603 157.002C127.194 157.605 126.995 158.339 127.042 159.082C127.086 159.806 127.36 160.453 127.775 160.968C125.653 163.445 124.441 166.79 124.662 170.4C125.095 177.513 130.903 182.946 137.634 182.536C143.325 182.189 147.839 177.771 148.841 172.116C148.97 172.126 149.099 172.142 149.233 172.134C150.041 172.084 150.795 171.698 151.33 171.059C151.864 170.421 152.135 169.582 152.083 168.728C152.031 167.874 151.66 167.075 151.052 166.506C150.444 165.937 149.648 165.645 148.84 165.694" fill="#44D860"/>
<path fill-rule="evenodd" clip-rule="evenodd" d="M110.903 145.386L135.278 143.9L134.493 131.021L110.118 132.507L110.903 145.386Z" fill="#3ECC5F"/>
<path fill-rule="evenodd" clip-rule="evenodd" d="M141.077 138.698C141.481 138.674 141.858 138.48 142.126 138.161C142.393 137.842 142.529 137.422 142.503 136.995C142.477 136.569 142.291 136.169 141.987 135.884C141.683 135.6 141.285 135.454 140.881 135.479C140.815 135.483 140.751 135.499 140.688 135.511C140.673 135.463 140.659 135.416 140.644 135.368C140.959 135.205 141.211 134.93 141.355 134.592C141.5 134.254 141.529 133.872 141.438 133.512C141.347 133.152 141.141 132.835 140.854 132.616C140.568 132.396 140.22 132.288 139.868 132.309C139.521 132.33 139.213 132.476 138.969 132.698C138.934 132.664 138.897 132.63 138.86 132.596C139.035 132.316 139.132 131.978 139.11 131.615C139.087 131.244 138.944 130.892 138.704 130.618C138.465 130.345 138.144 130.166 137.795 130.113C137.446 130.06 137.092 130.135 136.792 130.327C136.491 130.518 136.264 130.814 136.147 131.163C135.604 131.036 135.047 130.988 134.493 131.021C131.128 131.226 128.575 134.276 128.792 137.832C129.009 141.387 131.913 144.105 135.278 143.899C135.847 143.865 136.39 143.742 136.903 143.557C137.061 143.89 137.323 144.155 137.644 144.309C137.966 144.462 138.327 144.494 138.666 144.399C139.006 144.304 139.303 144.088 139.508 143.787C139.712 143.486 139.812 143.119 139.789 142.748C139.767 142.385 139.63 142.062 139.422 141.805C139.455 141.767 139.487 141.729 139.518 141.69C139.786 141.881 140.11 141.989 140.457 141.968C140.809 141.946 141.142 141.797 141.4 141.544C141.658 141.292 141.825 140.952 141.872 140.583C141.919 140.214 141.843 139.838 141.658 139.52C141.472 139.202 141.189 138.96 140.855 138.837C140.865 138.788 140.872 138.739 140.882 138.69C140.946 138.694 141.011 138.702 141.077 138.698Z" fill="#44D860"/>
<path fill-rule="evenodd" clip-rule="evenodd" d="M144.275 90.8357C144.177 90.8416 144.073 90.8351 143.974 90.8217C143.875 90.8076 143.777 90.7832 143.682 90.749C143.589 90.716 143.5 90.6697 143.411 90.6169C143.328 90.5638 143.245 90.4978 143.167 90.4314C143.096 90.3582 143.024 90.285 142.964 90.1982C142.904 90.1114 142.849 90.0242 142.806 89.9299C142.719 89.7379 142.668 89.5305 142.653 89.3187C142.647 89.2157 142.653 89.1055 142.665 89.0014C142.677 88.8972 142.701 88.7988 142.731 88.6935C142.762 88.5947 142.805 88.5016 142.855 88.4081C142.904 88.321 142.966 88.2332 143.028 88.1519C143.097 88.0765 143.172 88.0009 143.247 87.9381C143.33 87.8749 143.412 87.8182 143.501 87.774C143.589 87.7298 143.686 87.6917 143.782 87.6664C143.974 87.6094 144.175 87.5972 144.379 87.63C144.477 87.6434 144.577 87.6696 144.671 87.7027C144.764 87.7358 144.853 87.782 144.942 87.8348C145.025 87.8879 145.108 87.9539 145.186 88.0203C145.258 88.0935 145.33 88.1731 145.39 88.2535C145.45 88.3403 145.504 88.4275 145.547 88.5218C145.59 88.6226 145.626 88.7173 145.65 88.8193C145.674 88.9212 145.694 89.0299 145.7 89.1329C145.726 89.5579 145.586 89.9866 145.325 90.2998C145.255 90.3752 145.181 90.4508 145.105 90.5136C145.024 90.5768 144.941 90.6335 144.852 90.6777C144.672 90.7691 144.476 90.8227 144.275 90.8357V90.8357ZM156.413 89.2876C156.011 89.3121 155.61 89.162 155.305 88.8833C155.233 88.8102 155.165 88.7323 155.102 88.6501C155.042 88.5633 154.988 88.4761 154.945 88.3818C154.858 88.1897 154.806 87.9824 154.792 87.7706C154.766 87.3456 154.905 86.9234 155.166 86.6037C155.236 86.5284 155.31 86.4528 155.386 86.39C155.468 86.3268 155.55 86.2701 155.639 86.2259C155.728 86.1817 155.824 86.1435 155.92 86.1182C156.113 86.0613 156.32 86.0486 156.517 86.0818C156.616 86.0952 156.716 86.1215 156.809 86.1545C156.903 86.1876 156.992 86.2339 157.08 86.2866C157.163 86.3398 157.246 86.4058 157.324 86.4721C157.622 86.7577 157.813 87.1598 157.839 87.5848C157.845 87.6878 157.839 87.7981 157.827 87.9022C157.815 88.0063 157.791 88.1112 157.76 88.21C157.724 88.3092 157.687 88.402 157.637 88.4955C157.587 88.5825 157.526 88.6703 157.463 88.7517C157.394 88.827 157.319 88.9027 157.244 88.9655C157.162 89.0286 157.079 89.0854 156.991 89.1295C156.81 89.2209 156.614 89.2746 156.413 89.2876Z" fill="black"/>
<path fill-rule="evenodd" clip-rule="evenodd" d="M36.2124 38.3953C43.0212 43.9293 45.5755 43.5071 58.3614 42.6536L178.899 35.413C181.456 35.413 179.33 32.8616 178.477 32.4377L158.459 17.9599C154.623 14.9806 149.512 11.5689 139.718 12.4223L23.0009 20.9387C18.7442 21.3609 17.8941 23.4901 19.5892 25.1966L36.2124 38.3953ZM43.4493 66.4978V193.375C43.4493 200.194 46.8554 202.745 54.5216 202.323L186.993 194.655C194.663 194.233 195.517 189.543 195.517 184.003V57.9776C195.517 52.4474 193.391 49.4651 188.695 49.8908L50.2619 57.9776C45.153 58.4071 43.4493 60.9637 43.4493 66.4978ZM13.2011 9.44354L134.605 0.4994C149.514 -0.779751 153.35 0.0771809 162.72 6.88654L201.474 34.1356C207.869 38.8214 210 40.0971 210 45.205V194.655C210 204.021 206.589 209.56 194.665 210.408L53.678 218.925C44.7266 219.352 40.4665 218.076 35.7787 212.111L7.23989 175.069C2.12662 168.25 0 163.149 0 157.181V24.3401C0 16.6807 3.41172 10.2914 13.2011 9.44354Z" fill="#3ECC5F"/>
</svg>
